PathFileType	4	(X/Y/Z)	c:/Users/goper/Files/vsCode/490R/osim_files/C17/C17_SSWS_04.trc
DataRate	CameraRate	NumFrames	NumMarkers	Units                	OrigDataRate	OrigDataStartFrame	OrigNumFrames
250.00	250.00	9	36	mm	250.0	731	1949
                Frame#	Time	LPSIS			LASIS			LTH1			LTH2			LTH3			LTH4			LLFE			LMFE			LSH1			LSH2			LSH3			LSH4			LLMAL			LMMAL			LCAL			LMTP5			LTOE			LMTP1			RPSIS			RASIS			RTH1			RTH2			RTH3			RTH4			RLFE			RMFE			RSH1			RSH2			RSH3			RSH4			RLMAL			RMMAL			RCAL			RMTP1			RTOE			RMTP5		
		X1	Y1	Z1	X2	Y2	Z2	X3	Y3	Z3	X4	Y4	Z4	X5	Y5	Z5	X6	Y6	Z6	X7	Y7	Z7	X8	Y8	Z8	X9	Y9	Z9	X10	Y10	Z10	X11	Y11	Z11	X12	Y12	Z12	X13	Y13	Z13	X14	Y14	Z14	X15	Y15	Z15	X16	Y16	Z16	X17	Y17	Z17	X18	Y18	Z18	X19	Y19	Z19	X20	Y20	Z20	X21	Y21	Z21	X22	Y22	Z22	X23	Y23	Z23	X24	Y24	Z24	X25	Y25	Z25	X26	Y26	Z26	X27	Y27	Z27	X28	Y28	Z28	X29	Y29	Z29	X30	Y30	Z30	X31	Y31	Z31	X32	Y32	Z32	X33	Y33	Z33	X34	Y34	Z34	X35	Y35	Z35	X36	Y36	Z36

731	2.92000	692.79041	1080.02979	234.71010	501.47226	1029.73975	327.55225	471.15909	703.70129	373.77997	442.52679	666.27338	370.98819	417.66711	735.33826	380.55942	397.41544	694.55737	376.16064	392.42661	526.47656	354.16440	373.97272	526.59204	226.61395	506.18341	329.95578	348.74765	535.01685	297.57330	343.68994	557.74921	366.58228	347.00378	578.53741	328.73334	343.13861	643.12799	198.00975	323.97519	621.73608	197.20102	235.88727	724.24487	200.20947	270.76828	574.50897	89.22703	351.64490	507.51086	82.35596	292.21887	530.45093	68.01427	242.95151	686.38306	1081.21838	161.05580	518.03430	1028.18726	61.44662	550.34308	750.14331	11.14483	545.79803	704.10663	18.62272	491.41928	753.02246	23.25297	493.99365	705.71124	26.72694	516.93695	483.78748	56.66934	533.77289	504.87869	179.78275	609.89459	292.19919	66.53168	608.79651	249.51224	83.11157	547.82709	288.79727	75.59885	552.87640	242.77097	92.92989	619.45435	85.38843	132.62445	592.62573	106.77789	218.48795	690.10126	50.80587	179.70508	456.38193	41.67995	221.81848	441.11487	65.01162	176.69432	495.30191	33.51403	107.60283
732	2.92400	686.77411	1080.57129	234.68124	495.24902	1030.40576	327.14557	461.41180	703.97809	373.44629	434.07962	667.74017	370.92960	409.91534	737.15265	380.31146	389.21133	696.41821	375.76837	383.14636	527.92212	353.65247	364.88824	528.31207	226.13182	492.53406	328.74545	348.47916	520.65472	295.62106	343.42752	544.91064	364.31729	346.53961	564.78278	325.96387	342.66296	626.17792	193.32863	323.85190	604.23779	192.84825	235.92149	707.45105	193.13597	270.72858	554.19354	86.62450	351.70807	487.79190	81.52663	292.13107	509.62939	66.51983	242.95111	680.31610	1081.67627	161.00569	511.98666	1028.74219	61.10194	546.48151	750.34906	10.43937	542.32172	704.39447	18.50788	487.45731	752.80981	23.26200	490.68076	705.57855	26.47533	515.18622	483.76254	56.74586	532.26117	504.87311	179.79224	608.86591	292.61115	66.56145	610.66144	251.40585	82.37186	546.59503	288.93906	75.56618	554.14081	243.75087	90.98184	619.15363	85.59275	132.63406	592.55890	107.01289	218.57443	689.86346	51.17014	179.69316	456.21085	41.60863	222.00450	440.93558	64.81595	176.63904	495.23566	33.45193	107.57328
733	2.92800	680.73071	1081.03625	234.63617	489.01813	1030.86121	326.75125	455.22180	706.31250	373.95712	426.01947	669.21716	370.84811	402.22079	738.82214	380.01260	381.26987	698.11444	375.43906	373.92380	529.24365	353.09171	356.07806	529.91821	225.67384	479.00171	327.49438	348.18799	506.17770	293.62866	343.18549	532.05438	361.91232	346.02725	550.97845	323.02570	342.23782	609.08197	188.57742	323.71368	587.07269	188.66701	235.81396	690.26050	186.02786	270.70215	534.11713	84.09652	351.84116	467.68500	80.78014	292.03018	489.31403	64.92954	242.88943	674.76898	1082.49121	161.10257	505.93307	1029.27856	60.76278	541.83899	750.31451	10.24559	538.82129	704.67426	18.37926	483.54028	752.62408	23.18861	487.14944	705.43793	26.45927	513.35840	483.84589	56.81698	530.74750	504.92490	179.86133	607.80292	292.98920	66.54595	609.62421	251.37032	82.52180	545.70294	289.02505	75.67710	553.38312	244.03702	90.90957	618.84760	85.78594	132.60222	592.18726	107.24065	218.52000	689.64221	51.65414	179.64288	456.05035	41.49323	222.09142	440.82385	64.59868	176.68184	495.19650	33.41959	107.54628
734	2.93200	674.68237	1081.47778	234.62579	482.89084	1031.37024	326.35248	444.45657	705.83911	373.28610	417.76538	670.57892	370.70541	394.64481	740.40924	379.64209	373.30515	699.84869	374.98642	364.94629	530.36322	352.36624	347.25793	531.39771	225.15413	465.69366	326.34836	347.55447	491.67978	291.64734	342.89828	519.22034	359.46902	345.43399	537.20990	319.99350	341.75192	591.82941	183.85567	323.59390	569.75696	184.46797	235.73123	673.50763	179.28311	270.66953	513.91797	81.61501	351.91797	447.66620	80.03107	292.05698	469.27011	63.34890	243.01370	668.23322	1082.50952	160.97733	499.87286	1029.79529	60.42940	538.39868	750.79370	10.06471	535.29169	704.92157	18.23891	479.62451	752.46185	23.13612	483.61621	705.36328	26.41089	511.49466	483.87210	56.86694	529.10773	504.97684	179.90459	606.74188	293.40353	66.58942	608.76855	251.85252	82.50085	544.35144	289.05222	75.84548	552.46606	244.25978	90.89569	618.57880	86.02245	132.56528	591.73456	107.46935	218.48067	689.46228	52.29152	179.57242	455.93481	41.34618	222.13522	440.72659	64.37130	176.65279	495.13614	33.37643	107.52926
735	2.93600	668.71216	1081.92395	234.64606	476.71701	1031.62964	326.07077	437.65726	706.87000	373.43805	409.84042	671.83081	370.64252	387.12900	741.89984	379.41495	365.41147	701.41882	374.45654	356.11072	531.46130	351.81952	338.80063	532.77679	224.71922	452.03543	324.94098	347.24625	477.22769	289.45456	342.60162	506.36249	356.86581	344.94958	523.38391	316.79709	341.29300	574.40454	179.12488	323.44733	552.31897	180.23436	235.65054	655.74292	172.19841	270.47470	493.78879	79.08104	351.97241	427.43787	79.25692	292.02249	448.80734	61.90054	243.36809	662.76154	1083.18054	161.05324	493.80557	1030.29163	60.10209	534.53271	751.12634	9.86827	531.69946	705.19629	18.08546	476.44031	752.77783	22.80603	480.04443	705.19922	26.35886	509.56647	483.83646	56.91969	527.36420	505.09161	179.91974	605.64154	293.79031	66.50762	607.78247	252.18440	82.47194	543.49365	289.30066	75.59616	551.63293	244.41916	90.80283	618.29388	86.27992	132.52124	591.37891	107.71287	218.42496	689.31659	52.86828	179.47110	455.87222	41.23234	222.22977	440.59082	64.18426	176.66731	495.07227	33.33511	107.48029
736	2.94000	663.01410	1082.57068	234.50591	470.50497	1031.96228	325.59518	429.31403	708.15100	373.99133	401.97095	673.03888	370.51611	379.64978	743.27594	379.01627	357.75165	702.78418	374.06137	347.52039	532.41492	351.23141	330.39035	534.00262	224.21542	437.84155	323.05869	347.09027	462.58237	287.21921	342.23349	493.37234	354.03564	344.50507	509.38586	313.51923	340.90811	556.82996	174.34624	323.27750	536.00018	176.25226	236.38925	637.53015	164.89053	270.32986	473.59641	76.53102	352.14334	407.39462	78.38152	292.14746	427.16074	60.60530	243.29158	656.21545	1083.02100	160.98015	487.73065	1030.76660	59.78110	532.11548	751.88794	7.35312	528.00836	705.36859	17.99557	472.57077	752.71796	22.66375	476.43396	705.00537	26.33977	507.54660	483.91852	56.96997	525.44550	505.20090	180.01215	604.45795	294.20975	66.53246	606.83630	252.61099	82.48747	542.26398	289.39291	75.55137	550.62665	244.65880	90.72134	617.93561	86.53476	132.45456	591.41296	108.21072	218.01152	689.07141	53.45635	179.34650	455.67023	41.10773	222.30843	440.41595	64.01777	176.64719	495.00366	33.26634	107.44836
737	2.94400	656.59131	1082.33899	234.71965	464.33951	1032.14355	325.33340	421.07385	709.05640	374.18100	394.06036	674.07465	370.35013	372.03836	744.35730	378.66238	350.03806	704.17603	373.69897	338.99438	533.18164	350.56796	322.35513	535.14026	223.70587	424.21646	321.34528	346.71967	447.95853	284.94601	341.88702	480.40958	351.06467	344.12067	495.29675	310.13177	340.63339	539.15155	169.60683	323.14511	516.42773	171.43887	234.98952	619.53442	158.03537	270.08841	453.64182	74.07333	352.31909	387.18640	77.61344	292.29935	407.32388	59.17533	244.11290	650.92358	1083.59583	161.04416	481.64752	1031.21948	59.46674	528.13257	752.08081	7.20228	524.31586	705.56238	17.86516	468.58374	752.56317	22.59681	472.77344	704.88232	26.25075	505.53812	483.92108	57.00340	523.24561	505.25967	179.94522	603.32629	294.62350	66.46926	605.79547	253.02710	82.40091	540.91351	289.46786	75.60480	549.62244	244.73035	90.72610	617.88623	87.03526	132.06998	590.98083	108.48701	217.89726	688.90088	54.02848	179.25154	455.56601	41.02465	222.32831	440.33560	63.62338	176.80228	495.05826	33.17980	107.50166
738	2.94800	650.51129	1082.35095	234.68840	458.33722	1032.27710	324.97064	413.64206	709.78198	374.08942	386.42355	675.01471	370.27969	364.68362	745.40112	378.40582	342.46320	705.28839	373.22800	330.58051	533.83740	350.02576	314.42282	536.12268	223.23720	410.94308	319.98529	346.20251	433.26358	282.58472	341.59174	467.42599	347.99887	343.67233	481.09140	306.70688	340.40430	521.40289	164.93468	322.99936	498.52023	167.35094	234.88113	601.18909	151.15225	269.80511	433.33740	71.72500	352.53543	367.07858	76.80777	292.65326	386.46802	57.84085	244.50195	644.36700	1083.26599	160.97206	475.55560	1031.64929	59.15926	524.09851	752.26562	7.08014	520.58038	705.70300	17.76676	463.93951	751.82111	23.11519	469.03214	704.70477	26.24191	503.41226	483.88757	57.00909	520.93256	505.40179	179.96193	602.07239	295.06097	66.44781	602.48969	252.19609	82.60318	540.01648	289.75705	75.26788	548.55548	244.90532	90.64715	617.23358	87.06295	132.29994	590.96143	108.99033	217.51631	688.71094	54.63647	179.15637	455.44440	40.89315	222.39185	440.19821	63.36613	176.82462	495.00430	33.14108	107.46848
739	2.95200	644.43494	1082.34924	234.77151	452.14322	1032.47705	324.72284	406.58032	710.53101	373.97809	378.69260	675.79230	370.04352	357.39801	746.39008	378.00677	335.05789	706.40674	372.83054	322.27399	534.36951	349.41043	306.51880	536.97668	222.75481	397.68729	318.39420	345.89880	418.47144	280.35776	341.23032	454.32175	344.76257	343.23605	466.90848	303.19864	340.16138	503.39487	160.23418	322.80063	479.99643	163.36055	234.65186	583.31860	144.70741	269.32169	412.80005	69.11095	352.84384	346.87891	76.16926	293.13565	365.67999	56.57001	244.95401	638.31903	1083.20532	161.05054	469.45447	1032.05505	58.85894	519.97394	752.32043	6.97854	516.88184	705.83197	17.65903	460.49435	752.00537	22.39617	465.28989	704.53369	26.15257	501.21796	483.89987	57.02141	518.38440	505.50403	179.92142	600.87665	295.50229	66.33714	601.44080	252.64909	82.51246	538.73370	289.87253	75.18475	547.62921	245.09450	90.49128	616.94812	87.33869	132.20715	590.55408	109.28404	217.45525	688.45551	55.22010	179.04747	455.31833	40.79520	222.44286	440.09119	63.14024	176.84158	494.94913	33.07881	107.44440
